<?xml version="1.0" standalone="no"?>
<!DOCTYPE svg PUBLIC "-//W3C//DTD SVG 20010904//EN"
 "http://www.w3.org/TR/2001/REC-SVG-20010904/DTD/svg10.dtd">
<svg version="1.0" xmlns="http://www.w3.org/2000/svg"
 width="319.000000pt" height="359.000000pt" viewBox="0 0 319.000000 359.000000"
 preserveAspectRatio="xMidYMid meet">

<g transform="translate(0.000000,359.000000) scale(0.100000,-0.100000)"
fill="#000000" stroke="none">
<path d="M1505 3004 c-402 -44 -750 -230 -965 -516 -71 -94 -160 -272 -189
-378 -35 -126 -47 -266 -33 -388 16 -143 43 -235 107 -368 147 -304 420 -532
768 -643 154 -49 261 -65 442 -65 304 0 554 74 793 234 186 124 323 280 417
474 64 133 91 225 107 368 14 122 2 262 -33 388 -29 106 -118 284 -189 378
-190 252 -503 438 -837 497 -89 16 -315 27 -388 19z m-405 -674 c219 -26 274
-31 460 -36 197 -6 368 5 635 42 165 22 235 26 251 13 8 -6 14 -30 14 -53 0
-47 -16 -66 -80 -94 -22 -9 -40 -20 -40 -24 0 -5 -13 -8 -29 -8 -17 0 -32 -4
-35 -9 -3 -5 -33 -12 -66 -16 l-60 -7 0 -48 c0 -28 6 -52 14 -59 8 -7 45 -11
92 -9 90 2 124 -11 124 -46 0 -37 -42 -57 -132 -64 l-80 -5 6 -26 c7 -26 41
-398 53 -564 5 -81 4 -89 -15 -107 -13 -12 -35 -20 -57 -20 -55 0 -58 12 -70
235 -3 72 -10 150 -15 175 -5 25 -14 104 -21 177 l-11 132 -383 0 -382 1 -7
-68 c-3 -37 -10 -110 -15 -164 -5 -53 -12 -101 -16 -107 -3 -6 -6 -46 -6 -89
1 -82 -16 -233 -30 -269 -7 -18 -16 -23 -44 -23 -50 0 -76 27 -77 81 -1 45 1
70 29 334 8 83 17 166 18 186 2 19 6 55 10 80 l6 44 -97 0 c-68 0 -99 4 -102
13 -2 6 -10 12 -17 12 -21 0 -27 31 -9 57 10 17 22 23 35 20 10 -3 21 -1 24 3
3 4 43 6 89 4 94 -5 96 -3 96 77 l0 36 -57 7 c-136 15 -215 48 -210 88 1 15
-5 23 -20 27 -12 3 -34 16 -48 29 -24 21 -25 25 -12 45 18 28 76 36 142 20 28
-6 93 -17 145 -23z m661 -595 c128 -46 183 -156 127 -256 -26 -46 -102 -89
-157 -89 -53 1 -117 33 -135 69 -22 42 -20 65 9 98 l24 28 -11 -31 c-10 -27
-9 -36 6 -58 34 -53 100 -60 148 -17 87 78 -15 195 -141 161 -97 -26 -145
-116 -110 -207 36 -98 205 -172 328 -144 72 16 29 -15 -48 -35 -210 -53 -435
100 -407 277 11 71 46 124 118 178 54 40 172 53 249 26z"/>
<path d="M1284 2121 c-2 -2 -4 -26 -4 -53 l0 -48 48 0 c26 0 91 -3 145 -7 l97
-6 0 56 0 57 -87 1 c-49 0 -112 2 -141 2 -30 1 -55 0 -58 -2z"/>
<path d="M1804 2123 l-101 -4 3 -50 c1 -28 4 -53 7 -55 2 -3 75 -2 161 2 l156
7 0 43 c0 52 -18 65 -82 62 -24 -1 -88 -4 -144 -5z"/>
</g>
</svg>
